<svg width="128" height="128" viewBox="0 0 128 128" fill="none" xmlns="http://www.w3.org/2000/svg">
<rect x="0.5" y="0.5" width="127" height="127" rx="14.5" fill="black" stroke="black"/>
<path d="M34.6808 17.9959L16.2308 107.996C15.5952 111.096 17.9639 114 21.129 114H106.341C109.516 114 111.887 111.079 111.234 107.972L92.3342 17.9724C91.8481 15.6575 89.8063 14 87.4409 14H39.579C37.2046 14 35.1577 15.6699 34.6808 17.9959Z" fill="white" stroke="black"/>
<path d="M105.844 114H21.6235C18.4602 114 16.0919 111.1 16.7244 108L25.2588 66.1818C25.4173 65.4051 25.7583 64.6772 26.2535 64.0581L28.2264 61.5919C30.009 59.3638 33.2918 59.0768 35.4339 60.9619L41.2926 66.1175C42.9092 67.5401 45.2551 67.7679 47.1151 66.6828L54.1138 62.6003C55.3164 61.8987 56.7571 61.7304 58.089 62.1358L75.9273 67.5648C77.7993 68.1346 79.8316 67.5599 81.1281 66.0943L87.8054 58.5461C89.375 56.7718 91.9743 56.3424 94.0311 57.5177L99.048 60.3846C100.289 61.094 101.168 62.301 101.461 63.7004L110.738 107.975C111.388 111.081 109.018 114 105.844 114Z" fill="#0090F7" stroke="#0090F7"/>
<circle cx="46" cy="47" r="5" fill="#0090F7"/>
<circle cx="68.5" cy="38.5" r="4.5" fill="#0090F7"/>
<circle cx="85" cy="48" r="5" fill="#0090F7"/>
</svg>
