<svg width="142" height="142" viewBox="0 0 142 142" fill="none" xmlns="http://www.w3.org/2000/svg">
<g filter="url(#filter0_d)">
<rect x="5" y="3" width="128" height="128" rx="15" fill="black"/>
<rect x="5.5" y="3.5" width="127" height="127" rx="14.5" stroke="black"/>
</g>
<path d="M39.6808 20.9959L21.2308 110.996C20.5952 114.096 22.9639 117 26.129 117H111.341C114.516 117 116.887 114.079 116.234 110.972L97.3342 20.9724C96.8481 18.6575 94.8063 17 92.4409 17H44.579C42.2046 17 40.1577 18.6699 39.6808 20.9959Z" fill="white" stroke="black"/>
<path d="M110.844 117H26.6235C23.4602 117 21.0919 114.1 21.7244 111L30.2588 69.1818C30.4173 68.4051 30.7583 67.6772 31.2535 67.0581L33.2264 64.5919C35.009 62.3638 38.2918 62.0768 40.4339 63.9619L46.2926 69.1175C47.9092 70.5401 50.2551 70.7679 52.1151 69.6828L59.1138 65.6003C60.3164 64.8987 61.7571 64.7304 63.089 65.1358L80.9273 70.5648C82.7993 71.1346 84.8316 70.5599 86.1281 69.0943L92.8054 61.5461C94.375 59.7718 96.9743 59.3424 99.0311 60.5177L104.048 63.3846C105.289 64.094 106.168 65.301 106.461 66.7004L115.738 110.975C116.388 114.081 114.018 117 110.844 117Z" fill="#0090F7" stroke="#0090F7"/>
<circle cx="51" cy="50" r="5" fill="#0090F7"/>
<circle cx="73.5" cy="41.5" r="4.5" fill="#0090F7"/>
<circle cx="90" cy="51" r="5" fill="#0090F7"/>
<defs>
<filter id="filter0_d" x="0" y="0" width="142" height="142" filterUnits="userSpaceOnUse" color-interpolation-filters="sRGB">
<feFlood flood-opacity="0" result="BackgroundImageFix"/>
<feColorMatrix in="SourceAlpha" type="matrix" values="0 0 0 0 0 0 0 0 0 0 0 0 0 0 0 0 0 0 127 0"/>
<feMorphology radius="1" operator="dilate" in="SourceAlpha" result="effect1_dropShadow"/>
<feOffset dx="2" dy="4"/>
<feGaussianBlur stdDeviation="3"/>
<feColorMatrix type="matrix" values="0 0 0 0 0 0 0 0 0 0 0 0 0 0 0 0 0 0 0.25 0"/>
<feBlend mode="normal" in2="BackgroundImageFix" result="effect1_dropShadow"/>
<feBlend mode="normal" in="SourceGraphic" in2="effect1_dropShadow" result="shape"/>
</filter>
</defs>
</svg>
